# xmcd
# 
# Track frame offsets:
#   300
#   15952
#   28950
#   43960
#   60605
#   76042
#   92312
#   107295
#   124810
#   141677
#   162505
#   179535
# 
# Disc length: 2592 seconds
# 
# Revision: 2
# Processed by: cddbd v1.5.1PL2 Copyright (c) Steve Scherf et al.
# Submitted via: Synapstar 1.0 
# 
DISCID=9b0a1c0c
DTITLE=Various Artist - #003
DYEAR=1900
DGENRE=Country
TTITLE0=Brooks and Dunn - She's Not The Cheatin' Kind
TTITLE1=Patty Loveless - I Try To Think About Elvis
TTITLE2=John Berry - What's In It For Me
TTITLE3=Blackhawk - I Sure Can Smell The Rain
TTITLE4=Sammy Kershaw - Third-Rate Romance
TTITLE5=Tracy Lawrence - I See It Now
TTITLE6=Faith Hill - Take Me As I Am
TTITLE7=John Michael Montgomery - If You've Got Love
TTITLE8=Leroy Parnell - The Power Of Love
TTITLE9=Lari White - Now I Know
TTITLE10=Little Texas - Kick A Little
TTITLE11=The Mavericks - There Goes My Heart
EXTD=MediaType: Karaoke CD+G Producer: StarDisc
EXTT0=
EXTT1=
EXTT2=
EXTT3=
EXTT4=
EXTT5=
EXTT6=
EXTT7=
EXTT8=
EXTT9=
EXTT10=
EXTT11=
PLAYORDER=
